<?xml version="1.0" encoding="iso-8859-1"?>
<!-- Generator: Adobe Illustrator 19.0.0, SVG Export Plug-In . SVG Version: 6.00 Build 0)  -->
<svg version="1.1" id="Capa_1" xmlns="http://www.w3.org/2000/svg" xmlns:xlink="http://www.w3.org/1999/xlink" x="0px" y="0px"
	 viewBox="0 0 497.391 497.391" style="enable-background:new 0 0 497.391 497.391;" xml:space="preserve">
<path d="M409.629,406.542H87.752C39.367,406.542,0,367.174,0,318.79c0-47.143,37.357-85.721,84.029-87.67
	c-1.087-6.524-1.631-13.119-1.631-19.735c0-66.468,54.067-120.535,120.535-120.535c39.922,0,76.745,19.603,99.106,51.975
	c13.643-7.344,28.772-11.171,44.457-11.171c52.086,0,94.47,42.384,94.47,94.481c0,3.457-0.205,6.954-0.616,10.473
	c33.695,12.647,57.042,45.409,57.042,82.182C497.391,367.174,458.023,406.542,409.629,406.542z M87.752,257.297
	c-33.912,0-61.493,27.582-61.493,61.493s27.581,61.493,61.493,61.493h321.877c33.911,0,61.504-27.582,61.504-61.493
	c0-28.792-20.423-54.066-48.549-60.098L409.3,255.84l3.293-13.17c1.405-5.61,2.113-11.169,2.113-16.535
	c0-37.613-30.598-68.222-68.211-68.222c-14.771,0-28.885,4.729-40.815,13.663l-12.278,9.201l-7.191-13.54
	c-16.433-30.926-48.343-50.128-83.28-50.128c-51.984,0-94.276,42.292-94.276,94.276c0,9.745,1.518,19.427,4.513,28.772l5.487,17.14
	H87.752z"/>
<g>
</g>
<g>
</g>
<g>
</g>
<g>
</g>
<g>
</g>
<g>
</g>
<g>
</g>
<g>
</g>
<g>
</g>
<g>
</g>
<g>
</g>
<g>
</g>
<g>
</g>
<g>
</g>
<g>
</g>
</svg>
